# xmcd
#
# Track frame offsets:
#	150
#	20362
#	38229
#	54713
#	71917
#	91335
#	106280
#	120094
#	134363
#	151694
#	169648
#	186064
#
# Disc length: 2699 seconds
#
# Revision: 0
# Processed by: cddbd v1.5.1PL0 Copyright (c) Steve Scherf et al.
# Submitted via: dBpowerAMP V4.0
#
DISCID=930a890c
DTITLE=Michael Jones - Prises et Reprises
DYEAR=2004
DGENRE=Blues
TTITLE0=Un Dernier Blues Pour Toi
TTITLE1=Le Frere Que J'ai Choisi
TTITLE2=Window
TTITLE3=Marcher Dans Memphis
TTITLE4=Vole
TTITLE5=Des Nuits Trop Longues
TTITLE6=Dans La Fumée
TTITLE7=La Demoiselle
TTITLE8=Il Croyait
TTITLE9=P'tit Blues Peinard
TTITLE10=J'aime Les Autres
TTITLE11=Boogie Man
EXTD=
EXTT0=
EXTT1=
EXTT2=
EXTT3=
EXTT4=
EXTT5=
EXTT6=
EXTT7=
EXTT8=
EXTT9=
EXTT10=
EXTT11=
PLAYORDER=
